<svg id="svg" version="1.1" xmlns="http://www.w3.org/2000/svg" xmlns:xlink="http://www.w3.org/1999/xlink" width="400" height="400" viewBox="0, 0, 400,400"><g id="svgg"><path id="path0" d="M112.894 14.700 L 113.000 26.600 125.500 26.706 L 138.000 26.811 138.000 14.806 L 138.000 2.800 125.394 2.800 L 112.788 2.800 112.894 14.700 M275.443 3.433 C 274.756 5.224,275.193 26.270,275.931 26.938 C 276.871 27.788,299.084 27.956,299.920 27.120 C 300.272 26.768,300.400 23.458,300.400 14.720 L 300.400 2.800 288.043 2.800 C 277.144 2.800,275.657 2.875,275.443 3.433 M217.600 69.200 L 217.600 81.600 230.000 81.600 L 242.400 81.600 242.400 69.200 L 242.400 56.800 230.000 56.800 L 217.600 56.800 217.600 69.200 M90.400 72.600 L 90.400 84.800 102.400 84.800 L 114.400 84.800 114.400 72.600 L 114.400 60.400 102.400 60.400 L 90.400 60.400 90.400 72.600 M368.400 130.800 L 368.400 143.200 380.800 143.200 L 393.200 143.200 393.200 130.800 L 393.200 118.400 380.800 118.400 L 368.400 118.400 368.400 130.800 M310.400 165.600 L 310.400 177.600 322.600 177.600 L 334.800 177.600 334.800 165.600 L 334.800 153.600 322.600 153.600 L 310.400 153.600 310.400 165.600 M368.400 269.594 L 368.400 281.600 380.806 281.600 L 393.212 281.600 393.106 269.700 L 393.000 257.800 380.700 257.694 L 368.400 257.588 368.400 269.594 M322.400 305.400 L 322.400 317.600 334.400 317.600 L 346.400 317.600 346.400 305.400 L 346.400 293.200 334.400 293.200 L 322.400 293.200 322.400 305.400 " stroke="none" fill="#236080" fill-rule="evenodd"></path><path id="path1" d="M384.400 10.258 C 384.400 10.474,384.985 11.179,385.700 11.825 L 387.000 13.000 385.800 11.602 C 385.140 10.833,384.555 10.128,384.500 10.035 C 384.445 9.943,384.400 10.043,384.400 10.258 M390.000 17.367 C 390.000 17.678,389.835 17.993,389.634 18.067 C 389.267 18.200,373.447 33.504,356.200 50.407 C 351.140 55.367,343.948 62.389,340.218 66.012 C 336.488 69.635,329.108 76.846,323.818 82.036 C 318.528 87.226,313.603 92.027,312.873 92.705 C 312.144 93.383,304.858 100.477,296.683 108.469 C 288.508 116.461,278.312 126.420,274.026 130.600 C 269.740 134.780,261.725 142.612,256.216 148.005 C 246.412 157.603,236.753 166.928,236.465 167.073 C 236.385 167.114,236.962 167.789,237.747 168.573 C 239.312 170.139,240.471 170.377,241.282 169.300 C 241.926 168.446,243.375 167.600,244.195 167.600 C 244.528 167.600,244.800 167.420,244.800 167.200 C 244.800 166.971,246.000 166.800,247.600 166.800 C 249.200 166.800,250.400 166.629,250.400 166.400 C 250.400 166.162,251.925 166.000,254.176 166.000 C 256.263 166.000,258.063 165.821,258.200 165.600 C 258.336 165.380,259.247 165.200,260.224 165.200 C 261.201 165.200,262.000 165.020,262.000 164.800 C 262.000 164.580,262.540 164.400,263.200 164.400 C 263.860 164.400,264.400 164.220,264.400 164.000 C 264.400 163.780,264.755 163.600,265.189 163.600 C 265.623 163.600,266.748 163.142,267.689 162.582 C 268.630 162.023,269.715 161.462,270.100 161.336 C 270.485 161.210,270.800 160.948,270.800 160.753 C 270.800 160.559,271.025 160.399,271.300 160.399 C 272.139 160.396,279.180 154.208,279.194 153.460 C 279.197 153.274,279.740 152.617,280.400 152.000 C 281.060 151.383,281.600 150.674,281.600 150.423 C 281.600 150.172,281.960 149.580,282.400 149.108 C 282.840 148.636,283.200 148.013,283.200 147.725 C 283.200 147.436,283.380 147.200,283.600 147.200 C 283.820 147.200,284.000 146.840,284.000 146.400 C 284.000 145.960,284.180 145.600,284.400 145.600 C 284.620 145.600,284.800 145.060,284.800 144.400 C 284.800 143.740,284.980 143.200,285.200 143.200 C 285.420 143.200,285.600 142.761,285.600 142.224 C 285.600 141.687,285.780 141.136,286.000 141.000 C 286.220 140.864,286.400 140.169,286.400 139.456 C 286.400 138.743,286.565 137.989,286.768 137.780 C 286.970 137.571,287.234 136.230,287.355 134.800 C 287.747 130.172,288.289 125.824,288.603 124.800 C 289.214 122.807,293.059 118.400,294.187 118.400 C 294.524 118.400,294.800 118.220,294.800 118.000 C 294.800 117.780,295.340 117.600,296.000 117.600 C 296.660 117.600,297.200 117.420,297.200 117.200 C 297.200 116.957,299.000 116.800,301.800 116.800 C 304.600 116.800,306.400 116.643,306.400 116.400 C 306.400 116.178,307.467 116.000,308.800 116.000 C 310.133 116.000,311.200 115.822,311.200 115.600 C 311.200 115.380,311.920 115.200,312.800 115.200 C 313.680 115.200,314.400 115.020,314.400 114.800 C 314.400 114.580,314.755 114.400,315.188 114.400 C 315.621 114.400,316.617 114.040,317.400 113.600 C 318.183 113.160,319.089 112.800,319.412 112.800 C 319.735 112.800,320.000 112.620,320.000 112.400 C 320.000 112.180,320.236 112.000,320.525 112.000 C 320.813 112.000,321.436 111.640,321.908 111.200 C 322.380 110.760,322.954 110.400,323.183 110.400 C 323.412 110.400,323.600 110.220,323.600 110.000 C 323.600 109.780,323.881 109.600,324.224 109.600 C 324.567 109.600,324.736 109.420,324.600 109.200 C 324.464 108.980,324.571 108.800,324.837 108.800 C 325.468 108.800,332.400 101.715,332.400 101.070 C 332.400 100.799,332.760 100.317,333.200 100.000 C 333.640 99.683,334.000 99.103,334.000 98.712 C 334.000 98.320,334.180 98.000,334.400 98.000 C 334.620 98.000,334.800 97.640,334.800 97.200 C 334.800 96.760,334.980 96.400,335.200 96.400 C 335.420 96.400,335.600 96.051,335.600 95.624 C 335.600 95.197,335.780 94.736,336.000 94.600 C 336.220 94.464,336.400 93.913,336.400 93.376 C 336.400 92.839,336.580 92.400,336.800 92.400 C 337.020 92.400,337.200 91.781,337.200 91.024 C 337.200 90.267,337.380 89.536,337.600 89.400 C 337.820 89.264,338.000 88.173,338.000 86.976 C 338.000 85.779,338.180 84.800,338.400 84.800 C 338.633 84.800,338.800 83.469,338.800 81.606 C 338.800 76.217,340.724 71.435,343.569 69.755 C 344.246 69.355,344.800 68.886,344.800 68.714 C 344.800 68.541,345.160 68.400,345.600 68.400 C 346.040 68.400,346.400 68.220,346.400 68.000 C 346.400 67.776,347.507 67.600,348.920 67.600 C 350.306 67.600,351.611 67.432,351.820 67.227 C 352.029 67.021,353.910 66.763,356.000 66.653 C 360.931 66.392,363.600 66.009,363.600 65.560 C 363.600 65.362,364.129 65.200,364.776 65.200 C 365.423 65.200,366.064 65.020,366.200 64.800 C 366.336 64.580,366.887 64.400,367.424 64.400 C 367.961 64.400,368.400 64.220,368.400 64.000 C 368.400 63.780,368.760 63.600,369.200 63.600 C 369.640 63.600,370.000 63.420,370.000 63.200 C 370.000 62.980,370.360 62.800,370.800 62.800 C 371.240 62.800,371.600 62.620,371.600 62.400 C 371.600 62.180,371.836 62.000,372.125 62.000 C 372.413 62.000,373.036 61.640,373.508 61.200 C 373.980 60.760,374.471 60.400,374.598 60.400 C 375.195 60.400,383.200 52.460,383.200 51.868 C 383.200 51.598,383.560 51.117,384.000 50.800 C 384.440 50.483,384.800 49.903,384.800 49.512 C 384.800 49.120,384.980 48.800,385.200 48.800 C 385.420 48.800,385.600 48.440,385.600 48.000 C 385.600 47.560,385.780 47.200,386.000 47.200 C 386.220 47.200,386.400 46.840,386.400 46.400 C 386.400 45.960,386.580 45.600,386.800 45.600 C 387.020 45.600,387.200 45.161,387.200 44.624 C 387.200 44.087,387.380 43.536,387.600 43.400 C 387.820 43.264,388.000 42.623,388.000 41.976 C 388.000 41.329,388.180 40.800,388.400 40.800 C 388.620 40.800,388.800 40.026,388.800 39.080 C 388.800 38.134,388.967 37.189,389.172 36.980 C 389.376 36.771,389.636 35.070,389.748 33.200 C 390.047 28.231,390.383 25.958,391.027 24.540 C 391.342 23.846,391.600 23.121,391.600 22.928 C 391.600 22.735,391.960 22.317,392.400 22.000 C 393.489 21.215,393.405 19.769,392.200 18.564 C 391.650 18.014,391.200 17.392,391.200 17.182 C 391.200 16.972,390.930 16.800,390.600 16.800 C 390.270 16.800,390.000 17.055,390.000 17.367 M248.700 141.882 C 249.195 141.978,250.005 141.978,250.500 141.882 C 250.995 141.787,250.590 141.709,249.600 141.709 C 248.610 141.709,248.205 141.787,248.700 141.882 M224.460 150.242 C 224.162 150.578,223.999 150.932,224.095 151.029 C 224.192 151.126,224.598 150.844,224.998 150.402 C 225.397 149.961,225.561 149.607,225.362 149.615 C 225.163 149.624,224.757 149.905,224.460 150.242 " stroke="none" fill="#dc6564" fill-rule="evenodd"></path><path id="path2" d="M360.800 204.000 C 360.800 204.220,359.900 204.400,358.800 204.400 C 357.700 204.400,356.800 204.580,356.800 204.800 C 356.800 205.020,356.260 205.200,355.600 205.200 C 354.940 205.200,354.400 205.380,354.400 205.600 C 354.400 205.820,354.040 206.000,353.600 206.000 C 353.160 206.000,352.800 206.180,352.800 206.400 C 352.800 206.620,352.560 206.800,352.266 206.800 C 349.674 206.800,338.800 214.885,338.800 216.813 C 338.800 217.026,338.620 217.200,338.400 217.200 C 338.180 217.200,338.000 217.388,338.000 217.617 C 338.000 217.846,337.640 218.420,337.200 218.892 C 336.760 219.364,336.400 219.987,336.400 220.275 C 336.400 220.564,336.220 220.800,336.000 220.800 C 335.780 220.800,335.600 221.160,335.600 221.600 C 335.600 222.040,335.420 222.400,335.200 222.400 C 334.980 222.400,334.800 222.760,334.800 223.200 C 334.800 223.640,334.620 224.000,334.400 224.000 C 334.180 224.000,334.000 224.360,334.000 224.800 C 334.000 225.240,333.820 225.600,333.600 225.600 C 333.380 225.600,333.200 225.872,333.200 226.205 C 333.200 226.792,332.440 228.394,331.968 228.800 C 331.840 228.910,331.481 229.585,331.170 230.300 C 330.859 231.015,330.469 231.600,330.302 231.600 C 330.136 231.600,330.000 231.900,330.000 232.267 C 330.000 232.633,329.886 232.820,329.747 232.681 C 329.608 232.542,328.996 232.962,328.387 233.614 C 327.778 234.266,327.081 234.800,326.840 234.800 C 326.598 234.800,326.400 234.980,326.400 235.200 C 326.400 235.420,325.806 235.600,325.080 235.600 C 324.354 235.600,323.549 235.811,323.291 236.069 C 322.932 236.428,322.580 236.428,321.792 236.069 C 321.226 235.811,320.231 235.600,319.581 235.600 C 318.932 235.600,318.400 235.420,318.400 235.200 C 318.400 234.980,317.875 234.800,317.233 234.800 C 316.592 234.800,316.007 234.628,315.933 234.418 C 315.860 234.207,315.125 233.990,314.300 233.936 C 313.475 233.881,312.800 233.693,312.800 233.518 C 312.800 233.343,312.080 233.200,311.200 233.200 C 310.320 233.200,309.600 233.020,309.600 232.800 C 309.600 232.548,306.933 232.400,302.400 232.400 C 297.867 232.400,295.200 232.548,295.200 232.800 C 295.200 233.020,294.581 233.200,293.824 233.200 C 293.067 233.200,292.336 233.380,292.200 233.600 C 292.064 233.820,291.618 234.000,291.210 234.000 C 290.801 234.000,290.407 234.178,290.333 234.397 C 290.260 234.615,289.705 234.834,289.100 234.884 C 288.010 234.974,287.337 237.200,288.400 237.200 C 288.620 237.200,288.800 237.549,288.800 237.976 C 288.800 238.403,288.980 238.864,289.200 239.000 C 289.420 239.136,289.600 239.597,289.600 240.024 C 289.600 240.451,289.780 240.800,290.000 240.800 C 290.220 240.800,290.400 241.160,290.400 241.600 C 290.400 242.040,290.580 242.400,290.800 242.400 C 291.020 242.400,291.200 242.749,291.200 243.176 C 291.200 243.603,291.366 244.055,291.569 244.181 C 291.772 244.306,292.065 244.986,292.220 245.691 C 292.515 247.034,292.577 247.184,293.950 249.854 C 294.417 250.764,294.800 251.799,294.800 252.154 C 294.800 252.510,294.935 252.801,295.100 252.803 C 295.506 252.807,296.400 254.786,296.400 255.680 C 296.400 256.076,296.559 256.400,296.753 256.400 C 296.948 256.400,297.201 256.759,297.315 257.198 C 297.531 258.024,299.198 257.999,300.874 257.144 C 301.857 256.642,304.164 256.724,304.720 257.280 C 304.984 257.544,305.200 257.632,305.200 257.475 C 305.200 257.318,305.840 257.457,306.623 257.784 C 307.406 258.111,308.940 258.497,310.032 258.642 C 311.124 258.787,312.115 259.062,312.233 259.253 C 312.351 259.444,313.247 259.600,314.224 259.600 C 315.201 259.600,316.000 259.780,316.000 260.000 C 316.000 260.251,318.467 260.400,322.600 260.400 C 326.733 260.400,329.200 260.251,329.200 260.000 C 329.200 259.780,329.819 259.600,330.576 259.600 C 331.333 259.600,332.049 259.444,332.167 259.254 C 332.284 259.064,333.041 258.801,333.848 258.670 C 335.540 258.395,340.800 256.019,340.800 255.529 C 340.800 255.348,341.025 255.200,341.300 255.199 C 341.575 255.199,342.430 254.659,343.200 254.000 C 343.970 253.341,344.749 252.801,344.931 252.801 C 345.349 252.800,348.100 249.950,349.522 248.045 C 350.115 247.251,350.915 246.252,351.300 245.825 C 351.685 245.398,352.000 244.813,352.000 244.525 C 352.000 244.236,352.180 244.000,352.400 244.000 C 352.620 244.000,352.800 243.655,352.800 243.233 C 352.800 242.812,352.945 242.407,353.122 242.333 C 353.300 242.260,354.556 239.950,355.914 237.200 C 358.354 232.257,359.230 230.800,359.761 230.800 C 359.911 230.800,360.420 230.440,360.892 230.000 C 361.364 229.560,362.167 229.200,362.675 229.200 C 363.184 229.200,363.600 229.020,363.600 228.800 C 363.600 228.572,364.792 228.400,366.376 228.400 C 367.903 228.400,369.264 228.580,369.400 228.800 C 369.536 229.020,370.267 229.200,371.024 229.200 C 371.781 229.200,372.400 229.380,372.400 229.600 C 372.400 229.820,372.929 230.000,373.576 230.000 C 374.223 230.000,374.864 230.180,375.000 230.400 C 375.136 230.620,375.856 230.800,376.600 230.800 C 377.344 230.800,378.064 230.980,378.200 231.200 C 378.336 231.420,379.506 231.600,380.800 231.600 C 382.094 231.600,383.264 231.780,383.400 232.000 C 383.536 232.220,384.897 232.400,386.424 232.400 C 388.008 232.400,389.200 232.228,389.200 232.000 C 389.200 231.778,390.256 231.600,391.567 231.600 C 392.868 231.600,393.993 231.428,394.067 231.218 C 394.140 231.007,394.863 230.791,395.674 230.737 C 396.485 230.684,397.059 230.496,396.951 230.320 C 396.842 230.144,397.213 230.000,397.776 230.000 C 398.339 230.000,398.800 229.820,398.800 229.600 C 398.800 229.380,399.095 229.200,399.456 229.200 C 400.218 229.200,399.994 224.731,399.219 224.473 C 398.989 224.396,398.800 223.999,398.800 223.590 C 398.800 223.182,398.620 222.736,398.400 222.600 C 398.180 222.464,398.000 222.003,398.000 221.576 C 398.000 221.149,397.820 220.800,397.600 220.800 C 397.380 220.800,397.200 220.440,397.200 220.000 C 397.200 219.560,397.020 219.200,396.800 219.200 C 396.580 219.200,396.400 218.851,396.400 218.424 C 396.400 217.997,396.220 217.536,396.000 217.400 C 395.780 217.264,395.600 216.803,395.600 216.376 C 395.600 215.949,395.420 215.600,395.200 215.600 C 394.980 215.600,394.800 215.240,394.800 214.800 C 394.800 214.360,394.620 214.000,394.400 214.000 C 394.180 214.000,394.000 213.770,394.000 213.490 C 394.000 213.209,393.466 211.904,392.813 210.590 C 392.159 209.275,391.619 207.885,391.613 207.500 C 391.599 206.722,388.000 206.423,388.000 207.200 C 388.000 207.420,387.100 207.600,386.000 207.600 C 384.900 207.600,384.000 207.420,384.000 207.200 C 384.000 206.980,383.381 206.800,382.624 206.800 C 381.867 206.800,381.136 206.620,381.000 206.400 C 380.864 206.180,380.223 206.000,379.576 206.000 C 378.929 206.000,378.400 205.820,378.400 205.600 C 378.400 205.380,377.680 205.200,376.800 205.200 C 375.920 205.200,375.200 205.020,375.200 204.800 C 375.200 204.580,374.491 204.400,373.624 204.400 C 372.757 204.400,371.936 204.220,371.800 204.000 C 371.655 203.765,369.329 203.600,366.176 203.600 C 362.859 203.600,360.800 203.753,360.800 204.000 " stroke="none" fill="#04cc74" fill-rule="evenodd"></path><path id="path3" d="M195.759 1.533 C 196.160 2.183,192.627 6.800,191.728 6.800 C 191.438 6.800,191.200 6.980,191.200 7.200 C 191.200 7.420,190.840 7.600,190.400 7.600 C 189.960 7.600,189.600 7.780,189.600 8.000 C 189.600 8.220,189.314 8.400,188.965 8.400 C 188.132 8.400,180.824 11.998,179.825 12.900 C 179.398 13.285,178.813 13.600,178.525 13.600 C 178.236 13.600,178.000 13.780,178.000 14.000 C 178.000 14.220,177.822 14.400,177.605 14.400 C 176.793 14.400,170.000 20.906,170.000 21.684 C 170.000 21.916,169.685 22.399,169.300 22.757 C 168.658 23.354,168.275 23.937,167.038 26.200 C 166.797 26.640,166.500 27.090,166.378 27.200 C 165.955 27.580,164.400 31.194,164.400 31.796 C 164.400 32.128,164.220 32.400,164.000 32.400 C 163.780 32.400,163.600 32.940,163.600 33.600 C 163.600 34.260,163.437 34.800,163.239 34.800 C 161.968 34.800,161.968 54.443,163.239 55.780 C 163.437 55.989,163.600 56.754,163.600 57.480 C 163.600 58.206,163.780 58.800,164.000 58.800 C 164.242 58.800,164.400 60.533,164.400 63.200 C 164.400 65.867,164.242 67.600,164.000 67.600 C 163.780 67.600,163.600 67.960,163.600 68.400 C 163.600 68.840,163.420 69.200,163.200 69.200 C 162.980 69.200,162.800 69.494,162.800 69.853 C 162.800 70.212,162.412 70.842,161.939 71.253 C 161.465 71.664,161.220 72.000,161.393 72.000 C 162.079 72.000,158.894 74.477,157.200 75.261 C 156.210 75.720,154.691 76.433,153.825 76.847 C 152.959 77.261,152.014 77.600,151.725 77.600 C 151.436 77.600,151.200 77.780,151.200 78.000 C 151.200 78.220,150.840 78.400,150.400 78.400 C 149.960 78.400,149.600 78.559,149.600 78.753 C 149.600 78.948,149.285 79.207,148.900 79.329 C 147.858 79.659,145.891 80.904,145.154 81.700 C 144.798 82.085,144.347 82.400,144.153 82.400 C 143.606 82.399,136.400 90.039,136.400 90.619 C 136.400 90.902,136.265 91.193,136.100 91.267 C 135.550 91.511,134.000 93.959,134.000 94.584 C 134.000 94.923,133.820 95.200,133.600 95.200 C 132.998 95.200,133.119 96.777,133.771 97.429 C 134.086 97.743,134.626 98.000,134.971 98.000 C 135.317 98.000,135.600 98.180,135.600 98.400 C 135.600 98.620,135.960 98.800,136.400 98.800 C 136.840 98.800,137.200 98.980,137.200 99.200 C 137.200 99.420,137.560 99.600,138.000 99.600 C 138.440 99.600,138.800 99.780,138.800 100.000 C 138.800 100.220,139.045 100.400,139.345 100.400 C 139.644 100.400,141.289 101.120,143.000 102.000 C 144.711 102.880,146.356 103.600,146.655 103.600 C 146.955 103.600,147.200 103.780,147.200 104.000 C 147.200 104.220,147.560 104.400,148.000 104.400 C 148.440 104.400,148.800 104.580,148.800 104.800 C 148.800 105.020,149.052 105.200,149.359 105.200 C 149.667 105.200,150.959 105.747,152.230 106.416 C 154.869 107.804,155.301 107.751,156.224 105.921 C 157.049 104.284,159.178 102.000,159.878 102.000 C 160.165 102.000,160.401 101.865,160.403 101.700 C 160.407 101.341,162.344 100.400,163.080 100.400 C 163.366 100.400,163.600 100.220,163.600 100.000 C 163.600 99.780,163.960 99.600,164.400 99.600 C 164.840 99.600,165.200 99.420,165.200 99.200 C 165.200 98.980,165.560 98.800,166.000 98.800 C 166.440 98.800,166.800 98.620,166.800 98.400 C 166.800 98.180,167.160 98.000,167.600 98.000 C 168.040 98.000,168.400 97.820,168.400 97.600 C 168.400 97.380,168.760 97.200,169.200 97.200 C 169.640 97.200,170.000 97.020,170.000 96.800 C 170.000 96.580,170.193 96.400,170.428 96.400 C 170.935 96.400,174.541 93.991,174.733 93.523 C 174.807 93.345,175.032 93.200,175.235 93.200 C 175.437 93.200,176.457 92.391,177.501 91.402 C 178.546 90.413,179.535 89.603,179.700 89.602 C 179.865 89.601,180.000 89.422,180.000 89.205 C 180.000 88.987,180.315 88.432,180.700 87.971 C 181.085 87.510,181.805 86.653,182.300 86.066 C 182.794 85.480,183.199 84.775,183.200 84.500 C 183.200 84.225,183.380 84.000,183.600 84.000 C 183.820 84.000,184.000 83.803,184.000 83.562 C 184.000 83.321,184.336 82.646,184.746 82.062 C 185.156 81.478,185.740 80.280,186.044 79.400 C 186.347 78.520,186.690 77.710,186.805 77.600 C 187.231 77.191,188.800 72.059,188.800 71.071 C 188.800 70.508,188.980 69.936,189.200 69.800 C 189.437 69.654,189.600 67.204,189.600 63.800 C 189.600 60.396,189.437 57.946,189.200 57.800 C 188.980 57.664,188.800 56.789,188.800 55.856 C 188.800 54.923,188.638 53.989,188.441 53.780 C 188.244 53.571,187.974 52.635,187.841 51.700 C 187.246 47.501,187.094 46.782,186.758 46.574 C 186.270 46.273,186.303 44.107,186.800 43.800 C 187.020 43.664,187.200 43.149,187.200 42.655 C 187.200 40.366,191.725 34.000,193.352 34.000 C 193.708 34.000,194.000 33.820,194.000 33.600 C 194.000 33.380,194.360 33.200,194.800 33.200 C 195.240 33.200,195.600 33.020,195.600 32.800 C 195.600 32.580,195.960 32.400,196.400 32.400 C 196.840 32.400,197.200 32.220,197.200 32.000 C 197.200 31.780,197.560 31.600,198.000 31.600 C 198.440 31.600,198.800 31.420,198.800 31.200 C 198.800 30.980,199.160 30.800,199.600 30.800 C 200.040 30.800,200.400 30.620,200.400 30.400 C 200.400 30.180,200.760 30.000,201.200 30.000 C 201.640 30.000,202.000 29.854,202.000 29.675 C 202.000 29.496,202.630 29.102,203.400 28.800 C 204.170 28.498,204.800 28.104,204.800 27.925 C 204.800 27.746,205.070 27.600,205.400 27.600 C 205.730 27.600,206.000 27.420,206.000 27.200 C 206.000 26.980,206.179 26.800,206.397 26.800 C 207.198 26.800,212.839 21.437,214.390 19.200 C 214.924 18.430,215.460 17.710,215.581 17.600 C 215.701 17.490,216.042 16.970,216.338 16.445 C 219.264 11.248,219.487 11.742,213.000 9.030 C 212.120 8.662,211.087 8.190,210.705 7.981 C 210.323 7.771,209.738 7.600,209.405 7.600 C 209.072 7.600,208.800 7.454,208.800 7.275 C 208.800 7.096,208.170 6.702,207.400 6.400 C 206.630 6.098,206.000 5.704,206.000 5.525 C 206.000 5.346,205.640 5.200,205.200 5.200 C 204.760 5.200,204.400 5.020,204.400 4.800 C 204.400 4.580,204.040 4.400,203.600 4.400 C 203.160 4.400,202.800 4.220,202.800 4.000 C 202.800 3.780,202.440 3.600,202.000 3.600 C 201.560 3.600,201.200 3.420,201.200 3.200 C 201.200 2.980,200.840 2.800,200.400 2.800 C 199.960 2.800,199.600 2.620,199.600 2.400 C 199.600 2.180,199.251 2.000,198.824 2.000 C 198.397 2.000,197.936 1.820,197.800 1.600 C 197.664 1.380,197.103 1.200,196.553 1.200 C 196.003 1.200,195.645 1.350,195.759 1.533 " stroke="none" fill="#8cbcfc" fill-rule="evenodd"></path><path id="path4" d="M375.200 4.080 C 374.650 4.780,373.818 5.737,373.351 6.207 C 372.884 6.677,372.271 7.497,371.988 8.031 C 371.705 8.564,371.142 9.235,370.737 9.523 C 370.331 9.810,370.000 10.395,370.000 10.823 C 370.000 11.250,369.820 11.600,369.600 11.600 C 369.380 11.600,369.200 11.870,369.200 12.200 C 369.200 12.530,369.020 12.800,368.800 12.800 C 368.580 12.800,368.400 13.160,368.400 13.600 C 368.400 14.040,368.259 14.400,368.087 14.400 C 367.915 14.400,367.734 14.887,367.685 15.482 C 367.636 16.078,367.416 16.744,367.198 16.962 C 366.979 17.181,366.800 17.864,366.800 18.480 C 366.800 19.096,366.620 19.600,366.400 19.600 C 366.180 19.600,366.000 20.579,366.000 21.776 C 366.000 22.973,365.820 24.064,365.600 24.200 C 365.380 24.336,365.200 25.977,365.200 27.847 C 365.200 29.717,365.053 31.156,364.874 31.045 C 364.694 30.935,364.504 31.672,364.452 32.684 C 364.304 35.549,360.223 41.200,358.302 41.200 C 357.916 41.200,357.600 41.380,357.600 41.600 C 357.600 41.820,357.000 42.000,356.267 42.000 C 355.533 42.000,354.821 42.112,354.685 42.249 C 354.548 42.385,352.403 42.559,349.918 42.635 C 344.569 42.798,341.578 43.142,340.928 43.669 C 340.668 43.880,339.903 44.068,339.228 44.087 C 338.552 44.106,338.000 44.274,338.000 44.461 C 338.000 44.647,337.680 44.800,337.289 44.800 C 336.898 44.800,336.178 45.080,335.688 45.423 C 335.199 45.766,334.619 45.935,334.399 45.800 C 334.180 45.664,334.000 45.743,334.000 45.976 C 334.000 46.209,333.629 46.400,333.176 46.400 C 332.723 46.400,332.464 46.580,332.600 46.800 C 332.736 47.020,332.567 47.200,332.224 47.200 C 331.881 47.200,331.600 47.380,331.600 47.600 C 331.600 47.820,331.375 48.003,331.100 48.007 C 330.035 48.023,321.600 55.843,321.600 56.815 C 321.600 57.053,321.420 57.136,321.200 57.000 C 320.980 56.864,320.800 57.041,320.800 57.393 C 320.800 58.022,320.502 58.484,319.100 60.029 C 318.715 60.453,318.400 61.160,318.400 61.600 C 318.400 62.040,318.256 62.400,318.080 62.400 C 317.738 62.400,316.583 65.199,316.719 65.700 C 316.763 65.865,316.640 66.000,316.445 66.000 C 316.250 66.000,315.988 66.495,315.863 67.100 C 315.738 67.705,315.428 69.100,315.174 70.200 C 314.921 71.300,314.629 73.597,314.526 75.305 C 314.423 77.012,314.218 78.335,314.069 78.244 C 313.921 78.152,313.741 79.365,313.670 80.939 C 313.598 82.512,313.373 83.860,313.170 83.933 C 312.966 84.007,312.800 84.376,312.800 84.753 C 312.800 85.676,310.745 88.800,310.138 88.800 C 309.872 88.800,309.540 89.160,309.400 89.600 C 309.260 90.040,308.813 90.400,308.406 90.400 C 308.000 90.400,307.607 90.578,307.533 90.797 C 307.460 91.015,306.918 91.233,306.329 91.281 C 305.740 91.330,305.333 91.492,305.425 91.641 C 305.517 91.790,303.569 92.012,301.096 92.135 C 292.692 92.551,289.714 92.962,287.600 93.996 C 286.830 94.373,285.345 94.927,284.300 95.228 C 283.255 95.529,282.400 95.915,282.400 96.087 C 282.400 96.259,282.138 96.400,281.818 96.400 C 281.498 96.400,280.797 96.805,280.261 97.300 C 279.724 97.795,278.436 98.830,277.398 99.600 C 275.159 101.260,270.772 105.439,271.014 105.681 C 271.108 105.774,270.602 106.471,269.892 107.230 C 269.181 107.989,268.150 109.508,267.600 110.605 C 267.050 111.702,266.465 112.660,266.300 112.733 C 266.135 112.807,266.000 113.212,266.000 113.633 C 266.000 114.055,265.820 114.400,265.600 114.400 C 265.380 114.400,265.200 114.929,265.200 115.576 C 265.200 116.223,265.039 116.852,264.842 116.974 C 264.478 117.199,264.131 119.013,263.765 122.600 C 263.653 123.700,263.396 124.960,263.193 125.400 C 262.991 125.840,262.748 127.640,262.653 129.400 C 262.409 133.924,262.095 134.998,260.520 136.699 C 259.755 137.525,258.918 138.494,258.660 138.854 C 257.921 139.880,255.294 141.200,253.988 141.200 C 253.335 141.200,252.800 141.352,252.800 141.537 C 252.800 141.723,250.696 141.913,248.125 141.960 C 245.553 142.007,243.281 142.150,243.076 142.277 C 242.870 142.404,242.049 142.547,241.251 142.595 C 239.425 142.705,237.766 143.111,236.096 143.858 C 235.378 144.179,234.585 144.315,234.334 144.159 C 234.052 143.985,233.986 144.054,234.162 144.338 C 234.341 144.628,234.150 144.800,233.647 144.800 C 233.207 144.800,232.736 144.980,232.600 145.200 C 232.464 145.420,232.081 145.600,231.748 145.600 C 231.415 145.600,230.871 145.872,230.539 146.204 C 230.207 146.536,229.725 146.687,229.468 146.540 C 229.210 146.392,229.136 146.421,229.301 146.604 C 229.467 146.786,228.841 147.390,227.911 147.944 C 226.981 148.499,225.794 149.458,225.274 150.076 C 224.754 150.694,224.075 151.200,223.764 151.200 C 222.844 151.200,223.062 153.586,224.061 154.453 C 224.535 154.864,225.063 155.200,225.234 155.200 C 225.406 155.200,225.660 155.560,225.800 156.000 C 225.940 156.440,226.342 156.800,226.694 156.800 C 227.045 156.800,227.224 156.909,227.090 157.043 C 226.956 157.177,227.992 158.421,229.393 159.807 C 230.793 161.194,231.832 162.434,231.703 162.564 C 231.573 162.694,231.767 162.800,232.133 162.800 C 232.500 162.800,232.800 162.952,232.800 163.138 C 232.800 163.612,236.072 166.800,236.558 166.800 C 236.969 166.800,239.013 164.845,256.216 148.005 C 261.725 142.612,269.740 134.780,274.026 130.600 C 278.312 126.420,288.508 116.461,296.683 108.469 C 304.858 100.477,312.144 93.383,312.873 92.705 C 313.603 92.027,318.528 87.226,323.818 82.036 C 329.108 76.846,336.488 69.635,340.218 66.012 C 343.948 62.389,351.140 55.367,356.200 50.407 C 367.979 38.863,389.192 18.261,389.569 18.000 C 390.890 17.086,390.267 16.295,379.877 5.700 C 376.629 2.388,376.551 2.361,375.200 4.080 M110.223 111.289 C 109.880 111.778,109.600 112.387,109.600 112.643 C 109.600 112.899,109.331 113.624,109.002 114.254 C 108.674 114.884,108.404 115.895,108.402 116.500 C 108.401 117.105,108.220 117.600,108.000 117.600 C 107.780 117.600,107.600 117.949,107.600 118.376 C 107.600 118.803,107.420 119.264,107.200 119.400 C 106.980 119.536,106.800 120.087,106.800 120.624 C 106.800 121.161,106.620 121.600,106.400 121.600 C 106.180 121.600,106.000 122.140,106.000 122.800 C 106.000 123.460,105.820 124.000,105.600 124.000 C 105.380 124.000,105.200 124.360,105.200 124.800 C 105.200 125.240,105.020 125.600,104.800 125.600 C 104.580 125.600,104.400 126.050,104.400 126.600 C 104.400 127.150,104.253 127.600,104.072 127.600 C 103.892 127.600,103.500 128.500,103.200 129.600 C 102.900 130.700,102.508 131.600,102.328 131.600 C 102.147 131.600,102.000 132.039,102.000 132.576 C 102.000 133.113,101.820 133.664,101.600 133.800 C 101.380 133.936,101.200 134.397,101.200 134.824 C 101.200 135.251,101.020 135.600,100.800 135.600 C 100.580 135.600,100.400 136.140,100.400 136.800 C 100.400 137.460,100.220 138.000,100.000 138.000 C 99.780 138.000,99.600 138.360,99.600 138.800 C 99.600 139.240,99.420 139.600,99.200 139.600 C 98.980 139.600,98.800 140.140,98.800 140.800 C 98.800 141.460,98.620 142.000,98.400 142.000 C 98.180 142.000,98.000 142.279,98.000 142.619 C 98.000 142.960,97.640 143.984,97.200 144.894 C 96.760 145.805,96.400 146.876,96.400 147.275 C 96.400 147.674,96.259 148.000,96.087 148.000 C 95.915 148.000,95.529 148.855,95.229 149.900 C 94.929 150.945,94.554 151.980,94.395 152.200 C 93.951 152.815,92.339 157.263,92.111 158.505 C 91.999 159.113,91.749 159.708,91.554 159.829 C 91.359 159.949,91.200 160.487,91.200 161.024 C 91.200 161.561,91.020 162.000,90.800 162.000 C 90.580 162.000,90.400 162.349,90.400 162.776 C 90.400 163.203,90.220 163.664,90.000 163.800 C 89.780 163.936,89.600 164.487,89.600 165.024 C 89.600 165.561,89.420 166.000,89.200 166.000 C 88.980 166.000,88.800 166.349,88.800 166.776 C 88.800 167.203,88.620 167.664,88.400 167.800 C 88.180 167.936,88.000 168.487,88.000 169.024 C 88.000 169.561,87.820 170.000,87.600 170.000 C 87.380 170.000,87.200 170.349,87.200 170.776 C 87.200 171.203,87.020 171.664,86.800 171.800 C 86.580 171.936,86.400 172.487,86.400 173.024 C 86.400 173.561,86.220 174.000,86.000 174.000 C 85.780 174.000,85.600 174.450,85.600 175.000 C 85.600 175.550,85.420 176.000,85.200 176.000 C 84.980 176.000,84.800 176.349,84.800 176.776 C 84.800 177.203,84.620 177.664,84.400 177.800 C 84.180 177.936,84.000 178.487,84.000 179.024 C 84.000 179.561,83.820 180.000,83.600 180.000 C 83.380 180.000,83.200 180.349,83.200 180.776 C 83.200 181.203,83.020 181.664,82.800 181.800 C 82.580 181.936,82.400 182.487,82.400 183.024 C 82.400 183.561,82.220 184.000,82.000 184.000 C 81.780 184.000,81.600 184.439,81.600 184.976 C 81.600 185.513,81.420 186.064,81.200 186.200 C 80.980 186.336,80.800 186.797,80.800 187.224 C 80.800 187.651,80.620 188.000,80.400 188.000 C 80.180 188.000,80.000 188.540,80.000 189.200 C 80.000 189.860,79.820 190.400,79.600 190.400 C 79.380 190.400,79.200 190.760,79.200 191.200 C 79.200 191.640,79.020 192.000,78.800 192.000 C 78.580 192.000,78.400 192.439,78.400 192.976 C 78.400 193.513,78.220 194.064,78.000 194.200 C 77.780 194.336,77.600 194.709,77.600 195.028 C 77.600 195.347,77.255 196.372,76.832 197.304 C 76.093 198.938,75.461 200.711,75.420 201.267 C 75.409 201.413,75.265 201.668,75.100 201.833 C 74.935 201.998,74.800 202.643,74.800 203.267 C 74.800 203.890,74.620 204.400,74.400 204.400 C 74.180 204.400,74.000 204.760,74.000 205.200 C 74.000 205.640,73.820 206.000,73.600 206.000 C 73.380 206.000,73.200 206.540,73.200 207.200 C 73.200 207.860,73.020 208.400,72.800 208.400 C 72.580 208.400,72.400 208.760,72.400 209.200 C 72.400 209.640,72.220 210.000,72.000 210.000 C 71.780 210.000,71.600 210.439,71.600 210.976 C 71.600 211.513,71.420 212.064,71.200 212.200 C 70.980 212.336,70.800 212.887,70.800 213.424 C 70.800 213.961,70.620 214.400,70.400 214.400 C 70.180 214.400,70.000 214.760,70.000 215.200 C 70.000 215.640,69.820 216.000,69.600 216.000 C 69.380 216.000,69.200 216.540,69.200 217.200 C 69.200 217.860,69.020 218.400,68.800 218.400 C 68.580 218.400,68.400 218.760,68.400 219.200 C 68.400 219.640,68.220 220.000,68.000 220.000 C 67.780 220.000,67.600 220.540,67.600 221.200 C 67.600 221.860,67.453 222.400,67.272 222.400 C 67.092 222.400,66.700 223.300,66.400 224.400 C 66.100 225.500,65.708 226.400,65.528 226.400 C 65.347 226.400,65.200 226.850,65.200 227.400 C 65.200 227.950,65.020 228.400,64.800 228.400 C 64.580 228.400,64.400 228.749,64.400 229.176 C 64.400 229.603,64.220 230.064,64.000 230.200 C 63.780 230.336,63.600 230.763,63.600 231.148 C 63.600 231.534,63.240 232.595,62.800 233.506 C 62.360 234.416,62.000 235.440,62.000 235.781 C 62.000 236.121,61.820 236.400,61.600 236.400 C 61.380 236.400,61.200 236.940,61.200 237.600 C 61.200 238.260,61.053 238.800,60.872 238.800 C 60.692 238.800,60.300 239.700,60.000 240.800 C 59.700 241.900,59.338 242.800,59.194 242.800 C 59.051 242.800,58.906 243.025,58.873 243.300 C 58.666 245.028,58.259 246.400,57.955 246.400 C 57.760 246.400,57.600 246.749,57.600 247.176 C 57.600 247.603,57.420 248.064,57.200 248.200 C 56.980 248.336,56.800 248.887,56.800 249.424 C 56.800 249.961,56.620 250.400,56.400 250.400 C 56.180 250.400,56.000 250.940,56.000 251.600 C 56.000 252.260,55.820 252.800,55.600 252.800 C 55.380 252.800,55.200 253.160,55.200 253.600 C 55.200 254.040,55.020 254.400,54.800 254.400 C 54.580 254.400,54.400 254.940,54.400 255.600 C 54.400 256.260,54.220 256.800,54.000 256.800 C 53.780 256.800,53.600 257.160,53.600 257.600 C 53.600 258.040,53.420 258.400,53.200 258.400 C 52.980 258.400,52.800 258.850,52.800 259.400 C 52.800 259.950,52.620 260.400,52.400 260.400 C 52.180 260.400,52.000 260.850,52.000 261.400 C 52.000 261.950,51.820 262.400,51.600 262.400 C 51.380 262.400,51.200 262.762,51.200 263.205 C 51.200 263.648,51.020 264.368,50.800 264.805 C 50.580 265.242,50.220 265.958,50.000 266.395 C 49.780 266.832,49.600 267.462,49.600 267.795 C 49.600 268.128,49.420 268.400,49.200 268.400 C 48.980 268.400,48.800 268.940,48.800 269.600 C 48.800 270.260,48.620 270.800,48.400 270.800 C 48.180 270.800,48.000 271.160,48.000 271.600 C 48.000 272.040,47.820 272.400,47.600 272.400 C 47.380 272.400,47.200 272.940,47.200 273.600 C 47.200 274.260,47.020 274.800,46.800 274.800 C 46.580 274.800,46.400 275.124,46.400 275.520 C 46.400 275.916,46.251 276.411,46.070 276.620 C 45.888 276.829,45.490 277.810,45.186 278.800 C 44.882 279.790,44.534 280.690,44.413 280.800 C 44.292 280.910,43.686 282.530,43.068 284.400 C 41.941 287.808,41.413 289.199,40.753 290.495 C 40.559 290.877,40.400 291.552,40.400 291.995 C 40.400 292.438,40.220 292.800,40.000 292.800 C 39.780 292.800,39.600 293.250,39.600 293.800 C 39.600 294.350,39.420 294.800,39.200 294.800 C 38.980 294.800,38.800 295.160,38.800 295.600 C 38.800 296.040,38.620 296.400,38.400 296.400 C 38.180 296.400,38.000 296.940,38.000 297.600 C 38.000 298.260,37.820 298.800,37.600 298.800 C 37.380 298.800,37.200 299.160,37.200 299.600 C 37.200 300.040,37.020 300.400,36.800 300.400 C 36.580 300.400,36.400 300.940,36.400 301.600 C 36.400 302.260,36.220 302.800,36.000 302.800 C 35.780 302.800,35.600 303.239,35.600 303.776 C 35.600 304.313,35.420 304.864,35.200 305.000 C 34.980 305.136,34.800 305.597,34.800 306.024 C 34.800 306.451,34.620 306.800,34.400 306.800 C 34.180 306.800,34.000 307.239,34.000 307.776 C 34.000 308.313,33.820 308.864,33.600 309.000 C 33.380 309.136,33.200 309.597,33.200 310.024 C 33.200 310.451,33.020 310.800,32.800 310.800 C 32.580 310.800,32.400 311.250,32.400 311.800 C 32.400 312.350,32.220 312.800,32.000 312.800 C 31.780 312.800,31.600 313.239,31.600 313.776 C 31.600 314.313,31.420 314.864,31.200 315.000 C 30.980 315.136,30.800 315.597,30.800 316.024 C 30.800 316.451,30.620 316.800,30.400 316.800 C 30.180 316.800,30.000 317.340,30.000 318.000 C 30.000 318.660,29.820 319.200,29.600 319.200 C 29.380 319.200,29.200 319.560,29.200 320.000 C 29.200 320.440,29.020 320.800,28.800 320.800 C 28.580 320.800,28.400 321.340,28.400 322.000 C 28.400 322.660,28.220 323.200,28.000 323.200 C 27.780 323.200,27.600 323.472,27.600 323.804 C 27.600 324.137,27.262 325.172,26.849 326.104 C 25.623 328.873,24.800 331.367,24.800 332.313 C 24.800 332.801,24.620 333.200,24.400 333.200 C 24.180 333.200,24.000 333.560,24.000 334.000 C 24.000 334.440,23.820 334.800,23.600 334.800 C 23.380 334.800,23.200 335.340,23.200 336.000 C 23.200 336.660,23.020 337.200,22.800 337.200 C 22.580 337.200,22.400 337.560,22.400 338.000 C 22.400 338.440,22.220 338.800,22.000 338.800 C 21.780 338.800,21.600 339.340,21.600 340.000 C 21.600 340.660,21.420 341.200,21.200 341.200 C 20.980 341.200,20.800 341.549,20.800 341.976 C 20.800 342.403,20.620 342.864,20.400 343.000 C 20.180 343.136,20.000 343.597,20.000 344.024 C 20.000 344.451,19.820 344.800,19.600 344.800 C 19.380 344.800,19.200 345.340,19.200 346.000 C 19.200 346.660,19.020 347.200,18.800 347.200 C 18.580 347.200,18.400 347.560,18.400 348.000 C 18.400 348.440,18.220 348.800,18.000 348.800 C 17.780 348.800,17.600 349.340,17.600 350.000 C 17.600 350.660,17.420 351.200,17.200 351.200 C 16.980 351.200,16.800 351.549,16.800 351.976 C 16.800 352.403,16.620 352.864,16.400 353.000 C 16.180 353.136,16.000 353.687,16.000 354.224 C 16.000 354.761,15.820 355.200,15.600 355.200 C 15.380 355.200,15.200 355.562,15.200 356.005 C 15.200 356.448,15.020 357.168,14.800 357.605 C 14.580 358.042,14.220 358.758,14.000 359.195 C 13.780 359.632,13.600 360.262,13.600 360.595 C 13.600 360.928,13.420 361.200,13.200 361.200 C 12.980 361.200,12.800 361.549,12.800 361.976 C 12.800 362.403,12.620 362.864,12.400 363.000 C 12.180 363.136,12.000 363.687,12.000 364.224 C 12.000 364.761,11.820 365.200,11.600 365.200 C 11.380 365.200,11.200 365.562,11.200 366.005 C 11.200 366.448,11.020 367.168,10.800 367.605 C 10.580 368.042,10.220 368.758,10.000 369.195 C 9.780 369.632,9.600 370.241,9.600 370.549 C 9.600 370.857,9.331 371.624,9.002 372.254 C 8.674 372.884,8.404 373.895,8.402 374.500 C 8.401 375.105,8.220 375.600,8.000 375.600 C 7.780 375.600,7.600 375.960,7.600 376.400 C 7.600 376.840,7.420 377.200,7.200 377.200 C 6.980 377.200,6.800 377.650,6.800 378.200 C 6.800 378.750,6.620 379.200,6.400 379.200 C 6.180 379.200,6.000 379.650,6.000 380.200 C 6.000 380.750,5.820 381.200,5.600 381.200 C 5.380 381.200,5.200 381.650,5.200 382.200 C 5.200 382.750,5.020 383.200,4.800 383.200 C 4.580 383.200,4.400 383.740,4.400 384.400 C 4.400 385.060,4.220 385.600,4.000 385.600 C 3.780 385.600,3.600 385.949,3.600 386.376 C 3.600 386.803,3.420 387.264,3.200 387.400 C 2.980 387.536,2.800 388.087,2.800 388.624 C 2.800 389.161,2.620 389.600,2.400 389.600 C 2.180 389.600,2.000 389.960,2.000 390.400 C 2.000 390.840,1.820 391.200,1.600 391.200 C 1.380 391.200,1.200 391.614,1.200 392.120 C 1.200 392.626,1.005 393.235,0.766 393.474 C -0.030 394.270,-0.219 398.800,0.544 398.800 C 0.905 398.800,1.200 398.620,1.200 398.400 C 1.200 398.180,1.740 398.000,2.400 398.000 C 3.060 398.000,3.600 397.820,3.600 397.600 C 3.600 397.380,4.140 397.200,4.800 397.200 C 5.460 397.200,6.000 397.020,6.000 396.800 C 6.000 396.580,6.439 396.400,6.976 396.400 C 7.513 396.400,8.064 396.220,8.200 396.000 C 8.336 395.780,8.887 395.600,9.424 395.600 C 9.961 395.600,10.400 395.420,10.400 395.200 C 10.400 394.980,10.940 394.800,11.600 394.800 C 12.260 394.800,12.800 394.620,12.800 394.400 C 12.800 394.180,13.340 394.000,14.000 394.000 C 14.660 394.000,15.200 393.820,15.200 393.600 C 15.200 393.380,15.740 393.200,16.400 393.200 C 17.060 393.200,17.600 393.020,17.600 392.800 C 17.600 392.580,18.039 392.400,18.576 392.400 C 19.113 392.400,19.664 392.220,19.800 392.000 C 19.936 391.780,20.394 391.600,20.818 391.600 C 21.670 391.600,29.795 389.014,30.895 388.392 C 31.277 388.177,31.941 388.000,32.371 388.000 C 32.801 388.000,33.264 387.820,33.400 387.600 C 33.536 387.380,34.076 387.200,34.600 387.200 C 35.124 387.200,35.642 387.056,35.751 386.879 C 35.860 386.703,36.872 386.307,38.000 386.000 C 39.128 385.693,40.140 385.297,40.249 385.121 C 40.358 384.944,40.876 384.800,41.400 384.800 C 41.924 384.800,42.464 384.620,42.600 384.400 C 42.736 384.180,43.287 384.000,43.824 384.000 C 44.361 384.000,44.800 383.820,44.800 383.600 C 44.800 383.380,45.340 383.200,46.000 383.200 C 46.660 383.200,47.200 383.020,47.200 382.800 C 47.200 382.580,47.740 382.400,48.400 382.400 C 49.060 382.400,49.600 382.220,49.600 382.000 C 49.600 381.780,50.140 381.600,50.800 381.600 C 51.460 381.600,52.000 381.420,52.000 381.200 C 52.000 380.980,52.540 380.800,53.200 380.800 C 53.860 380.800,54.400 380.620,54.400 380.400 C 54.400 380.180,54.850 380.000,55.400 380.000 C 55.950 380.000,56.400 379.820,56.400 379.600 C 56.400 379.380,56.940 379.200,57.600 379.200 C 58.260 379.200,58.800 379.020,58.800 378.800 C 58.800 378.580,59.340 378.400,60.000 378.400 C 60.660 378.400,61.200 378.220,61.200 378.000 C 61.200 377.780,61.740 377.600,62.400 377.600 C 63.060 377.600,63.600 377.420,63.600 377.200 C 63.600 376.980,64.039 376.800,64.576 376.800 C 65.113 376.800,65.664 376.620,65.800 376.400 C 65.936 376.180,66.577 376.000,67.224 376.000 C 67.871 376.000,68.400 375.843,68.400 375.651 C 68.400 375.459,69.128 375.186,70.017 375.044 C 70.907 374.901,71.942 374.627,72.317 374.434 C 72.693 374.241,74.890 373.483,77.200 372.750 C 79.510 372.017,81.460 371.279,81.533 371.109 C 81.607 370.939,82.192 370.800,82.833 370.800 C 83.475 370.800,84.000 370.620,84.000 370.400 C 84.000 370.180,84.439 370.000,84.976 370.000 C 85.513 370.000,86.064 369.820,86.200 369.600 C 86.336 369.380,86.876 369.200,87.400 369.200 C 87.924 369.200,88.464 369.020,88.600 368.800 C 88.736 368.580,89.276 368.400,89.800 368.400 C 90.324 368.400,90.864 368.220,91.000 368.000 C 91.136 367.780,91.687 367.600,92.224 367.600 C 92.761 367.600,93.200 367.420,93.200 367.200 C 93.200 366.980,93.740 366.800,94.400 366.800 C 95.060 366.800,95.600 366.620,95.600 366.400 C 95.600 366.180,96.140 366.000,96.800 366.000 C 97.460 366.000,98.000 365.820,98.000 365.600 C 98.000 365.380,98.540 365.200,99.200 365.200 C 99.860 365.200,100.400 365.020,100.400 364.800 C 100.400 364.580,100.940 364.400,101.600 364.400 C 102.260 364.400,102.800 364.220,102.800 364.000 C 102.800 363.780,103.351 363.600,104.024 363.600 C 104.737 363.600,105.144 363.433,105.000 363.200 C 104.856 362.967,105.263 362.800,105.976 362.800 C 106.649 362.800,107.200 362.620,107.200 362.400 C 107.200 362.180,107.740 362.000,108.400 362.000 C 109.060 362.000,109.600 361.820,109.600 361.600 C 109.600 361.380,110.140 361.200,110.800 361.200 C 111.460 361.200,112.000 361.020,112.000 360.800 C 112.000 360.580,112.439 360.400,112.976 360.400 C 113.513 360.400,114.064 360.220,114.200 360.000 C 114.336 359.780,114.977 359.600,115.624 359.600 C 116.271 359.600,116.800 359.436,116.800 359.235 C 116.800 359.034,117.489 358.754,118.332 358.612 C 120.083 358.316,122.654 357.480,123.059 357.074 C 123.210 356.923,123.743 356.800,124.243 356.800 C 124.743 356.800,125.264 356.620,125.400 356.400 C 125.536 356.180,126.087 356.000,126.624 356.000 C 127.161 356.000,127.600 355.820,127.600 355.600 C 127.600 355.380,128.039 355.200,128.576 355.200 C 129.113 355.200,129.664 355.020,129.800 354.800 C 129.936 354.580,130.577 354.400,131.224 354.400 C 131.871 354.400,132.400 354.220,132.400 354.000 C 132.400 353.780,132.940 353.600,133.600 353.600 C 134.260 353.600,134.800 353.420,134.800 353.200 C 134.800 352.980,135.239 352.800,135.776 352.800 C 136.313 352.800,136.864 352.620,137.000 352.400 C 137.136 352.180,137.676 352.000,138.200 352.000 C 138.724 352.000,139.264 351.820,139.400 351.600 C 139.536 351.380,140.087 351.200,140.624 351.200 C 141.161 351.200,141.600 351.020,141.600 350.800 C 141.600 350.580,142.140 350.400,142.800 350.400 C 143.460 350.400,144.000 350.220,144.000 350.000 C 144.000 349.780,144.540 349.600,145.200 349.600 C 145.860 349.600,146.400 349.420,146.400 349.200 C 146.400 348.980,146.940 348.800,147.600 348.800 C 148.260 348.800,148.800 348.620,148.800 348.400 C 148.800 348.180,149.340 348.000,150.000 348.000 C 150.660 348.000,151.200 347.820,151.200 347.600 C 151.200 347.380,151.740 347.200,152.400 347.200 C 153.060 347.200,153.600 347.020,153.600 346.800 C 153.600 346.580,154.050 346.400,154.600 346.400 C 155.150 346.400,155.600 346.220,155.600 346.000 C 155.600 345.780,156.140 345.600,156.800 345.600 C 157.460 345.600,158.000 345.420,158.000 345.200 C 158.000 344.980,158.439 344.800,158.976 344.800 C 159.513 344.800,160.064 344.620,160.200 344.400 C 160.336 344.180,160.797 344.000,161.224 344.000 C 161.651 344.000,162.000 343.820,162.000 343.600 C 162.000 343.380,162.529 343.200,163.176 343.200 C 163.823 343.200,164.464 343.020,164.600 342.800 C 164.736 342.580,165.287 342.400,165.824 342.400 C 166.361 342.400,166.800 342.243,166.800 342.052 C 166.800 341.860,167.671 341.588,168.736 341.446 C 169.800 341.305,171.412 340.832,172.316 340.395 C 173.221 339.958,174.420 339.600,174.981 339.600 C 175.541 339.600,176.000 339.420,176.000 339.200 C 176.000 338.980,176.540 338.800,177.200 338.800 C 177.860 338.800,178.400 338.620,178.400 338.400 C 178.400 338.180,178.839 338.000,179.376 338.000 C 179.913 338.000,180.464 337.820,180.600 337.600 C 180.736 337.380,181.276 337.200,181.800 337.200 C 182.324 337.200,182.864 337.020,183.000 336.800 C 183.136 336.580,183.676 336.400,184.200 336.400 C 184.724 336.400,185.264 336.220,185.400 336.000 C 185.536 335.780,186.076 335.600,186.600 335.600 C 187.124 335.600,187.664 335.420,187.800 335.200 C 187.936 334.980,188.487 334.800,189.024 334.800 C 189.561 334.800,190.000 334.620,190.000 334.400 C 190.000 334.180,190.540 334.000,191.200 334.000 C 191.860 334.000,192.400 333.820,192.400 333.600 C 192.400 333.380,192.940 333.200,193.600 333.200 C 194.260 333.200,194.800 333.020,194.800 332.800 C 194.800 332.580,195.239 332.400,195.776 332.400 C 196.313 332.400,196.864 332.220,197.000 332.000 C 197.136 331.780,197.599 331.600,198.029 331.600 C 198.459 331.600,199.168 331.420,199.605 331.200 C 200.042 330.980,200.758 330.620,201.195 330.400 C 201.632 330.180,202.442 330.000,202.995 330.000 C 203.548 330.000,204.000 329.820,204.000 329.600 C 204.000 329.380,204.439 329.200,204.976 329.200 C 205.513 329.200,206.064 329.020,206.200 328.800 C 206.336 328.580,206.887 328.400,207.424 328.400 C 207.961 328.400,208.400 328.220,208.400 328.000 C 208.400 327.780,208.850 327.600,209.400 327.600 C 209.950 327.600,210.400 327.420,210.400 327.200 C 210.400 326.980,210.940 326.800,211.600 326.800 C 212.260 326.800,212.800 326.620,212.800 326.400 C 212.800 326.180,213.340 326.000,214.000 326.000 C 214.660 326.000,215.200 325.843,215.200 325.652 C 215.200 325.460,216.135 325.179,217.277 325.028 C 218.419 324.876,219.544 324.629,219.777 324.479 C 220.501 324.012,222.966 323.212,223.700 323.206 C 224.085 323.203,224.400 323.020,224.400 322.800 C 224.400 322.580,224.940 322.400,225.600 322.400 C 226.260 322.400,226.800 322.259,226.800 322.087 C 226.800 321.915,227.655 321.543,228.700 321.261 C 229.745 320.978,230.913 320.579,231.295 320.373 C 231.677 320.168,232.341 320.000,232.771 320.000 C 233.201 320.000,233.664 319.820,233.800 319.600 C 233.936 319.380,234.476 319.200,235.000 319.200 C 235.524 319.200,236.064 319.020,236.200 318.800 C 236.336 318.580,236.887 318.400,237.424 318.400 C 237.961 318.400,238.400 318.220,238.400 318.000 C 238.400 317.780,238.940 317.600,239.600 317.600 C 240.260 317.600,240.800 317.420,240.800 317.200 C 240.800 316.980,241.250 316.800,241.800 316.800 C 242.350 316.800,242.800 316.620,242.800 316.400 C 242.800 316.180,243.115 315.997,243.500 315.994 C 244.318 315.987,247.061 315.073,247.459 314.674 C 247.610 314.523,248.143 314.400,248.643 314.400 C 249.143 314.400,249.664 314.220,249.800 314.000 C 249.936 313.780,250.487 313.600,251.024 313.600 C 251.561 313.600,252.000 313.420,252.000 313.200 C 252.000 312.980,252.439 312.800,252.976 312.800 C 253.513 312.800,254.064 312.620,254.200 312.400 C 254.336 312.180,254.887 312.000,255.424 312.000 C 255.961 312.000,256.400 311.820,256.400 311.600 C 256.400 311.380,256.940 311.200,257.600 311.200 C 258.260 311.200,258.800 311.020,258.800 310.800 C 258.800 310.580,259.340 310.400,260.000 310.400 C 260.660 310.400,261.200 310.220,261.200 310.000 C 261.200 309.780,261.740 309.600,262.400 309.600 C 263.060 309.600,263.600 309.420,263.600 309.200 C 263.600 308.980,264.044 308.800,264.586 308.800 C 265.634 308.800,268.936 307.833,270.095 307.187 C 270.477 306.974,271.141 306.800,271.571 306.800 C 272.001 306.800,272.464 306.620,272.600 306.400 C 272.736 306.180,273.276 306.000,273.800 306.000 C 274.324 306.000,274.864 305.820,275.000 305.600 C 275.136 305.380,275.676 305.200,276.200 305.200 C 276.724 305.200,277.264 305.020,277.400 304.800 C 277.536 304.580,277.999 304.400,278.429 304.400 C 278.859 304.400,279.523 304.241,279.905 304.047 C 281.219 303.379,282.604 302.866,284.500 302.346 C 285.545 302.060,286.400 301.685,286.400 301.513 C 286.400 301.341,286.940 301.200,287.600 301.200 C 288.260 301.200,288.800 301.020,288.800 300.800 C 288.800 300.580,289.228 300.400,289.751 300.400 C 291.863 300.400,291.969 299.164,290.096 296.357 C 289.713 295.784,288.717 294.282,287.882 293.021 C 287.047 291.759,286.012 290.350,285.582 289.888 C 285.152 289.427,284.800 288.853,284.800 288.613 C 284.800 288.373,284.440 287.917,284.000 287.600 C 283.560 287.283,283.200 286.743,283.200 286.400 C 283.200 286.057,282.840 285.517,282.400 285.200 C 281.960 284.883,281.600 284.438,281.600 284.212 C 281.599 283.985,281.134 283.260,280.565 282.600 C 279.996 281.940,279.237 280.905,278.879 280.300 C 278.521 279.695,278.086 279.200,277.914 279.200 C 277.741 279.200,277.600 278.958,277.600 278.662 C 277.600 278.366,277.240 277.798,276.800 277.400 C 276.360 277.002,276.000 276.511,276.000 276.309 C 276.000 276.108,275.775 275.708,275.500 275.420 C 275.225 275.133,274.730 274.495,274.400 274.003 C 274.070 273.511,273.207 272.319,272.482 271.354 C 271.757 270.389,271.263 269.600,271.385 269.600 C 271.507 269.600,271.065 269.033,270.403 268.341 C 269.742 267.648,269.200 266.878,269.200 266.629 C 269.200 266.380,268.840 265.917,268.400 265.600 C 267.960 265.283,267.600 264.793,267.600 264.512 C 267.600 264.230,267.420 264.000,267.200 264.000 C 266.980 264.000,266.800 263.823,266.800 263.607 C 266.800 263.391,266.364 262.716,265.831 262.107 C 262.693 258.523,262.000 257.674,262.000 257.412 C 262.000 257.252,261.460 256.617,260.800 256.000 C 260.140 255.383,259.600 254.674,259.600 254.423 C 259.600 254.172,259.417 253.749,259.193 253.483 C 257.694 251.706,257.200 251.046,257.200 250.822 C 257.200 250.682,256.593 249.923,255.851 249.137 C 255.109 248.350,254.434 247.519,254.351 247.290 C 254.179 246.815,251.230 243.356,249.307 241.373 C 248.595 240.640,247.965 239.812,247.907 239.533 C 247.848 239.254,246.945 238.177,245.900 237.139 C 244.855 236.101,244.000 235.042,244.000 234.786 C 244.000 234.530,243.492 233.844,242.871 233.260 C 242.250 232.677,241.193 231.440,240.523 230.512 C 239.086 228.522,235.987 225.001,232.500 221.398 C 231.125 219.977,230.000 218.628,230.000 218.400 C 230.000 218.172,228.875 216.850,227.500 215.463 C 226.125 214.076,224.280 212.064,223.400 210.992 C 222.520 209.920,220.270 207.483,218.400 205.576 C 216.530 203.669,214.370 201.320,213.600 200.357 C 211.715 197.997,187.706 174.000,187.230 174.000 C 187.023 174.000,186.740 173.640,186.600 173.200 C 186.460 172.760,186.201 172.400,186.023 172.400 C 185.584 172.400,183.873 170.891,179.221 166.400 C 177.056 164.310,174.243 161.700,172.970 160.600 C 171.697 159.500,169.883 157.835,168.938 156.900 C 167.994 155.965,167.036 155.200,166.811 155.200 C 166.585 155.200,166.400 155.020,166.400 154.800 C 166.400 154.580,166.217 154.400,165.993 154.400 C 165.769 154.400,164.415 153.230,162.985 151.800 C 161.555 150.370,160.239 149.200,160.061 149.200 C 159.882 149.200,158.833 148.345,157.729 147.300 C 155.072 144.783,152.363 142.520,150.509 141.265 C 149.679 140.704,148.339 139.559,147.531 138.722 C 146.724 137.885,145.854 137.200,145.600 137.200 C 145.346 137.200,144.446 136.480,143.600 135.600 C 142.754 134.720,141.959 134.000,141.832 134.000 C 141.705 134.000,140.837 133.280,139.903 132.400 C 138.969 131.520,138.069 130.800,137.903 130.800 C 137.737 130.800,136.934 130.170,136.118 129.400 C 135.301 128.630,134.515 128.000,134.371 128.000 C 134.227 128.000,133.499 127.463,132.754 126.806 C 132.009 126.150,131.175 125.610,130.900 125.606 C 130.625 125.603,130.400 125.420,130.400 125.200 C 130.400 124.980,130.202 124.800,129.960 124.800 C 129.719 124.800,129.017 124.260,128.400 123.600 C 127.783 122.940,127.063 122.400,126.800 122.400 C 126.537 122.400,125.817 121.860,125.200 121.200 C 124.583 120.540,123.953 120.000,123.800 120.000 C 123.647 120.000,123.017 119.460,122.400 118.800 C 121.783 118.140,121.081 117.600,120.840 117.600 C 120.598 117.600,120.400 117.420,120.400 117.200 C 120.400 116.980,120.218 116.800,119.996 116.800 C 119.774 116.800,119.028 116.260,118.337 115.600 C 117.646 114.940,116.910 114.400,116.701 114.400 C 116.492 114.400,115.817 113.860,115.200 113.200 C 114.583 112.540,113.831 112.000,113.528 112.000 C 113.225 112.000,112.717 111.640,112.400 111.200 C 111.651 110.161,110.994 110.188,110.223 111.289 " stroke="none" fill="#e4946b" fill-rule="evenodd"></path></g></svg>